<?xml version="1.0" encoding="UTF-8" standalone="no"?>
<!DOCTYPE svg PUBLIC "-//W3C//DTD SVG 1.1//EN" "http://www.w3.org/Graphics/SVG/1.1/DTD/svg11.dtd">
<svg width="100%" height="100%" viewBox="0 0 299 299" version="1.1" xmlns="http://www.w3.org/2000/svg" xmlns:xlink="http://www.w3.org/1999/xlink" xml:space="preserve" xmlns:serif="http://www.serif.com/" style="fill-rule:evenodd;clip-rule:evenodd;stroke-linecap:round;stroke-linejoin:round;stroke-miterlimit:1.5;">
    <g transform="matrix(1,0,0,1,0,-864.23)">
        <g id="Artboard1" transform="matrix(0.954018,0,0,0.954018,0,876.045)">
            <rect x="0" y="-12.384" width="312.384" height="312.384" style="fill:none;"/>
            <g transform="matrix(1.0482,0,0,1.0482,0,-500.641)">
                <circle cx="149.01" cy="614.816" r="133.886" style="fill:none;stroke:white;stroke-width:10px;"/>
            </g>
            <g transform="matrix(1.0482,0,0,1.0482,0,-918.269)">
                <path d="M149.01,879.354C222.904,879.354 282.896,939.347 282.896,1013.24C282.896,1087.13 222.904,1147.13 149.01,1147.13C75.116,1147.13 15.124,1087.13 15.124,1013.24C15.124,939.347 75.116,879.354 149.01,879.354ZM154.01,1008.24L154.01,910.885L144.01,910.885L144.01,1008.24L46.655,1008.24L46.655,1018.24L144.01,1018.24L144.01,1115.6L154.01,1115.6L154.01,1018.24L251.365,1018.24L251.365,1008.24L154.01,1008.24Z" style="fill:white;"/>
            </g>
        </g>
    </g>
</svg>
