<?xml version="1.0" encoding="UTF-8" standalone="no"?>
<!DOCTYPE svg PUBLIC "-//W3C//DTD SVG 1.1//EN" "http://www.w3.org/Graphics/SVG/1.1/DTD/svg11.dtd">
<svg width="100%" height="100%" viewBox="0 0 299 299" version="1.1" xmlns="http://www.w3.org/2000/svg" xmlns:xlink="http://www.w3.org/1999/xlink" xml:space="preserve" xmlns:serif="http://www.serif.com/" style="fill-rule:evenodd;clip-rule:evenodd;stroke-linejoin:round;stroke-miterlimit:2;">
    <g transform="matrix(1,0,0,1,0,-465.806)">
        <g id="Artboard1" transform="matrix(0.954018,0,0,0.954018,0,477.621)">
            <rect x="0" y="-12.384" width="312.384" height="312.384" style="fill:none;"/>
            <g transform="matrix(1.05853,0,0,1.05853,2.19328,-8.08789)">
                <path d="M175.23,116.739L271.491,116.739L193.615,173.32L223.361,264.87L145.484,208.289L67.607,264.87L97.354,173.32L19.477,116.739L115.738,116.739L145.484,25.19L175.23,116.739ZM129.864,121.329L128.279,124.698L125.906,127.567L122.894,129.756L119.432,131.126L115.738,131.593L65.192,131.593L106.084,161.303L108.799,163.852L110.794,166.996L111.944,170.537L112.178,174.253L111.48,177.91L95.861,225.982L136.753,196.272L140.016,194.478L143.622,193.552L147.346,193.552L150.952,194.478L154.215,196.272L195.108,225.982L179.488,177.91L178.79,174.253L179.024,170.537L180.175,166.996L182.17,163.852L184.884,161.303L225.777,131.593L175.23,131.593L171.536,131.126L168.075,129.756L165.062,127.567L162.689,124.698L161.104,121.329L145.484,73.257L129.864,121.329Z" style="fill:rgb(0,111,159);"/>
            </g>
        </g>
    </g>
</svg>
